# xmcd
#
# Track frame offsets:
#	150
#	20661
#	38156
#	51767
#	66753
#	79559
#	98036
#	115575
#	133596
#	155689
#	171708
#	190355
#
# Disc length: 2768 seconds
#
# Revision: 1310756
# Processed by: cddbd v1.5.2PL0 Copyright (c) Steve Scherf et al.
# Submitted via: EZCDAudioConverter 8.5.0.1
#
DISCID=a00ace0c
DTITLE=Miranda Lambert - The Weight Of These Wings
DYEAR=2016
DGENRE=Country
TTITLE0=Miranda Lambert - Runnin' Just In Case
TTITLE1=Miranda Lambert - Highway Vagabond
TTITLE2=Miranda Lambert - Ugly Lights
TTITLE3=Miranda Lambert - You Wouldn't Know Me
TTITLE4=Miranda Lambert - We Should Be Friends
TTITLE5=Miranda Lambert - Pink Sunglasses
TTITLE6=Miranda Lambert - Getaway Driver
TTITLE7=Miranda Lambert - Vice
TTITLE8=Miranda Lambert - Smoking Jacket
TTITLE9=Miranda Lambert Feat. Anderson East - Pushin' Time
TTITLE10=Miranda Lambert - Covered Wagon
TTITLE11=Miranda Lambert - Use My Heart
EXTD=
EXTT0=
EXTT1=
EXTT2=
EXTT3=
EXTT4=
EXTT5=
EXTT6=
EXTT7=
EXTT8=
EXTT9=
EXTT10=
EXTT11=
PLAYORDER=
